{
    "asset" : {
        "generator" : "Khronos glTF Blender I/O v1.3.48",
        "version" : "2.0"
    },
    "scene" : 0,
    "scenes" : [
        {
            "name" : "Scene",
            "nodes" : [
                0,
                1,
                2,
                3
            ]
        }
    ],
    "nodes" : [
        {
            "name" : "Light",
            "rotation" : [
                0.16907575726509094,
                0.7558803558349609,
                -0.27217137813568115,
                0.570947527885437
            ],
            "scale" : [
                2,
                2,
                2.000000238418579
            ],
            "translation" : [
                8.17755126953125,
                11.71284294128418,
                -2.0418362617492676
            ]
        },
        {
            "name" : "Camera",
            "rotation" : [
                0.483536034822464,
                0.33687159419059753,
                -0.20870360732078552,
                0.7804827094078064
            ],
            "scale" : [
                2,
                2,
                2
            ],
            "translation" : [
                14.742844581604004,
                9.821737289428711,
                13.820652961730957
            ]
        },
        {
            "mesh" : 0,
            "name" : "legB",
            "rotation" : [
                -0.27059805393218994,
                0.6532815098762512,
                -0.27059802412986755,
                0.6532814502716064
            ],
            "scale" : [
                2,
                2,
                2
            ],
            "translation" : [
                -8.49701464176178e-05,
                0.8499301075935364,
                1.0853698253631592
            ]
        },
        {
            "mesh" : 1,
            "name" : "barrel1",
            "rotation" : [
                0.7071068286895752,
                0,
                0,
                0.7071068286895752
            ],
            "scale" : [
                2,
                2,
                2
            ],
            "translation" : [
                0.14984861016273499,
                1.9829459190368652,
                -0.6802864074707031
            ]
        }
    ],
    "materials" : [
        {
            "doubleSided" : true,
            "emissiveFactor" : [
                0,
                0,
                0
            ],
            "name" : "Material.001",
            "normalTexture" : {
                "index" : 0,
                "texCoord" : 0
            },
            "pbrMetallicRoughness" : {
                "baseColorTexture" : {
                    "index" : 1,
                    "texCoord" : 0
                },
                "metallicRoughnessTexture" : {
                    "index" : 2,
                    "texCoord" : 0
                }
            }
        },
        {
            "doubleSided" : true,
            "emissiveFactor" : [
                0,
                0,
                0
            ],
            "name" : "Material.002",
            "normalTexture" : {
                "index" : 3,
                "texCoord" : 0
            },
            "pbrMetallicRoughness" : {
                "baseColorTexture" : {
                    "index" : 4,
                    "texCoord" : 0
                },
                "metallicRoughnessTexture" : {
                    "index" : 5,
                    "texCoord" : 0
                }
            }
        }
    ],
    "meshes" : [
        {
            "name" : "turretBase",
            "primitives" : [
                {
                    "attributes" : {
                        "POSITION" : 0,
                        "NORMAL" : 1,
                        "TEXCOORD_0" : 2
                    },
                    "indices" : 3,
                    "material" : 0
                }
            ]
        },
        {
            "name" : "turretHead",
            "primitives" : [
                {
                    "attributes" : {
                        "POSITION" : 4,
                        "NORMAL" : 5,
                        "TEXCOORD_0" : 6
                    },
                    "indices" : 7,
                    "material" : 0
                },
                {
                    "attributes" : {
                        "POSITION" : 8,
                        "NORMAL" : 9,
                        "TEXCOORD_0" : 10
                    },
                    "indices" : 11,
                    "material" : 1
                }
            ]
        }
    ],
    "textures" : [
        {
            "source" : 0
        },
        {
            "source" : 1
        },
        {
            "source" : 2
        },
        {
            "source" : 3
        },
        {
            "source" : 4
        },
        {
            "source" : 5
        }
    ],
    "images" : [
        {
            "mimeType" : "image/png",
            "name" : "rusted-metal-normal",
            "uri" : "rusted-metal-normal.png"
        },
        {
            "mimeType" : "image/png",
            "name" : "rusted-metal-diffuse",
            "uri" : "rusted-metal-diffuse.png"
        },
        {
            "mimeType" : "image/png",
            "name" : "rusted-metal-metallic-rusted-metal-roughness",
            "uri" : "rusted-metal-metallic-rusted-metal-roughness.png"
        },
        {
            "mimeType" : "image/png",
            "name" : "crate-thing-normal",
            "uri" : "crate-thing-normal.png"
        },
        {
            "mimeType" : "image/png",
            "name" : "crate-thing-diffuse",
            "uri" : "crate-thing-diffuse.png"
        },
        {
            "mimeType" : "image/png",
            "name" : "crate-thing-metallic-crate-thing-roughness",
            "uri" : "crate-thing-metallic-crate-thing-roughness.png"
        }
    ],
    "accessors" : [
        {
            "bufferView" : 0,
            "componentType" : 5126,
            "count" : 3464,
            "max" : [
                1.40523362159729,
                0.9131100177764893,
                1.0036460161209106
            ],
            "min" : [
                -0.12376783788204193,
                -0.6158913969993591,
                -1.0036460161209106
            ],
            "type" : "VEC3"
        },
        {
            "bufferView" : 1,
            "componentType" : 5126,
            "count" : 3464,
            "type" : "VEC3"
        },
        {
            "bufferView" : 2,
            "componentType" : 5126,
            "count" : 3464,
            "type" : "VEC2"
        },
        {
            "bufferView" : 3,
            "componentType" : 5123,
            "count" : 6096,
            "type" : "SCALAR"
        },
        {
            "bufferView" : 4,
            "componentType" : 5126,
            "count" : 1552,
            "max" : [
                0.030000006780028343,
                0.09000001847743988,
                0.030000021681189537
            ],
            "min" : [
                -0.14888325333595276,
                -0.09000001847743988,
                -0.030000006780028343
            ],
            "type" : "VEC3"
        },
        {
            "bufferView" : 5,
            "componentType" : 5126,
            "count" : 1552,
            "type" : "VEC3"
        },
        {
            "bufferView" : 6,
            "componentType" : 5126,
            "count" : 1552,
            "type" : "VEC2"
        },
        {
            "bufferView" : 7,
            "componentType" : 5123,
            "count" : 3072,
            "type" : "SCALAR"
        },
        {
            "bufferView" : 8,
            "componentType" : 5126,
            "count" : 9294,
            "max" : [
                0.23744115233421326,
                0.6245137453079224,
                0.8260543942451477
            ],
            "min" : [
                -0.3622288107872009,
                0.02484378218650818,
                -0.1739456057548523
            ],
            "type" : "VEC3"
        },
        {
            "bufferView" : 9,
            "componentType" : 5126,
            "count" : 9294,
            "type" : "VEC3"
        },
        {
            "bufferView" : 10,
            "componentType" : 5126,
            "count" : 9294,
            "type" : "VEC2"
        },
        {
            "bufferView" : 11,
            "componentType" : 5123,
            "count" : 14040,
            "type" : "SCALAR"
        }
    ],
    "bufferViews" : [
        {
            "buffer" : 0,
            "byteLength" : 41568,
            "byteOffset" : 0
        },
        {
            "buffer" : 0,
            "byteLength" : 41568,
            "byteOffset" : 41568
        },
        {
            "buffer" : 0,
            "byteLength" : 27712,
            "byteOffset" : 83136
        },
        {
            "buffer" : 0,
            "byteLength" : 12192,
            "byteOffset" : 110848
        },
        {
            "buffer" : 0,
            "byteLength" : 18624,
            "byteOffset" : 123040
        },
        {
            "buffer" : 0,
            "byteLength" : 18624,
            "byteOffset" : 141664
        },
        {
            "buffer" : 0,
            "byteLength" : 12416,
            "byteOffset" : 160288
        },
        {
            "buffer" : 0,
            "byteLength" : 6144,
            "byteOffset" : 172704
        },
        {
            "buffer" : 0,
            "byteLength" : 111528,
            "byteOffset" : 178848
        },
        {
            "buffer" : 0,
            "byteLength" : 111528,
            "byteOffset" : 290376
        },
        {
            "buffer" : 0,
            "byteLength" : 74352,
            "byteOffset" : 401904
        },
        {
            "buffer" : 0,
            "byteLength" : 28080,
            "byteOffset" : 476256
        }
    ],
    "buffers" : [
        {
            "byteLength" : 504336,
            "uri" : "turret-experiment.bin"
        }
    ]
}
